<?xml version="1.0" standalone="no"?>
<!DOCTYPE svg PUBLIC "-//W3C//DTD SVG 20010904//EN"
 "http://www.w3.org/TR/2001/REC-SVG-20010904/DTD/svg10.dtd">
<svg version="1.0" xmlns="http://www.w3.org/2000/svg"
 width="1200.000000pt" height="1200.000000pt" viewBox="0 0 1200.000000 1200.000000"
 preserveAspectRatio="xMidYMid meet">
<metadata>
Created by potrace 1.14, written by Peter Selinger 2001-2017
</metadata>
<g transform="translate(0.000000,1200.000000) scale(0.100000,-0.100000)"
fill="#000000" stroke="none">
<path d="M1580 6000 l0 -4420 4420 0 4420 0 0 4420 0 4420 -4420 0 -4420 0 0
-4420z m8695 0 l0 -4275 -4275 0 -4275 0 -3 4265 c-1 2346 0 4271 3 4278 3 10
864 12 4277 10 l4273 -3 0 -4275z"/>
<path d="M8624 5345 c-44 -19 -58 -39 -45 -63 6 -11 49 -54 96 -97 46 -42 83
-81 80 -85 -2 -4 -32 -17 -66 -29 l-61 -23 -63 68 c-62 66 -64 67 -105 61 -48
-6 -80 -31 -80 -62 0 -38 87 -265 111 -291 31 -33 101 -58 141 -50 18 3 73 22
122 41 49 19 91 33 94 31 2 -3 -3 -62 -13 -131 -22 -161 -12 -178 80 -137 40
18 40 19 100 188 l60 169 180 68 c117 44 186 76 197 90 38 48 10 135 -56 176
-54 34 -110 28 -258 -29 -72 -27 -138 -50 -147 -50 -9 0 -65 30 -126 66 -188
113 -188 112 -241 89z m73 -41 c6 -17 -52 -35 -66 -21 -8 8 -5 15 11 24 26 14
50 13 55 -3z m144 -81 c44 -25 82 -50 84 -54 5 -7 -95 -49 -113 -49 -4 0 -36
27 -72 60 l-65 59 35 15 c19 8 38 15 43 16 4 0 44 -21 88 -47z m555 -7 c36
-36 46 -84 22 -103 -11 -9 -303 -123 -313 -123 -2 0 -5 10 -7 22 -2 12 -13 28
-26 34 -12 6 -29 20 -37 30 -18 25 -49 8 -53 -29 -2 -18 -12 -29 -34 -36 -26
-9 -32 -8 -48 12 -15 18 -22 20 -37 11 -24 -15 -27 -38 -8 -57 12 -13 14 -24
7 -49 -8 -30 -15 -35 -108 -70 -54 -21 -113 -41 -130 -44 -34 -6 -78 11 -106
43 -17 18 -98 232 -98 258 0 7 15 17 32 21 31 6 36 3 98 -65 l65 -71 330 125
c376 142 396 146 451 91z m-347 -228 c0 -7 -22 -71 -48 -143 -46 -125 -49
-130 -84 -144 -21 -8 -39 -12 -41 -10 -7 8 29 248 39 258 11 11 103 48 123 50
6 1 12 -5 11 -11z m-121 -345 c-2 -9 -18 -23 -35 -30 -30 -12 -33 -12 -33 6 0
12 11 23 28 29 39 15 44 14 40 -5z"/>
<path d="M9260 5175 c-18 -22 -8 -50 19 -50 32 0 49 28 32 49 -17 20 -35 20
-51 1z"/>
<path d="M9120 5120 c-9 -16 -8 -25 1 -36 27 -33 75 -2 52 35 -15 24 -40 25
-53 1z"/>
<path d="M8722 4978 c-29 -29 -4 -76 33 -62 26 10 13 74 -15 74 -3 0 -11 -5
-18 -12z"/>
<path d="M8460 4410 c0 -20 7 -20 465 -20 458 0 465 0 465 20 0 20 -7 20 -465
20 -458 0 -465 0 -465 -20z"/>
<path d="M3900 3825 l0 -75 2850 0 2850 0 0 75 0 75 -2850 0 -2850 0 0 -75z"/>
<path d="M7390 3464 c-136 -37 -219 -124 -266 -279 -27 -88 -25 -316 3 -402
42 -127 117 -209 231 -255 47 -18 77 -22 167 -22 130 0 224 24 301 77 l49 34
3 196 2 197 -185 0 -185 0 0 -70 0 -69 88 -3 87 -3 3 -83 3 -83 -43 -19 c-57
-26 -158 -26 -213 -1 -51 23 -78 53 -107 116 -20 45 -23 65 -22 195 1 153 10
198 55 261 44 62 154 88 232 55 43 -17 85 -68 93 -111 l6 -35 95 0 96 0 -7 42
c-16 100 -80 188 -166 233 -87 44 -219 56 -320 29z"/>
<path d="M8147 2868 c118 -337 123 -355 113 -392 -18 -62 -59 -96 -114 -96
l-46 0 0 -74 0 -73 31 -7 c49 -10 83 -7 130 9 54 19 94 56 124 115 20 40 305
846 305 863 0 4 -45 7 -99 7 l-99 0 -20 -67 c-11 -38 -40 -134 -64 -215 -24
-82 -45 -148 -48 -148 -3 0 -34 97 -70 215 l-63 215 -102 0 -102 0 124 -352z"/>
<path d="M8830 2962 c0 -275 6 -320 50 -382 37 -52 93 -75 185 -74 83 0 126
14 173 57 l22 20 0 -20 c0 -49 7 -53 96 -53 l84 0 0 355 0 355 -93 0 -93 0 1
-237 c0 -131 -3 -251 -8 -266 -25 -76 -189 -85 -217 -12 -6 15 -10 133 -10
271 l0 244 -95 0 -95 0 0 -258z"/>
</g>
</svg>
